<svg height="512" viewBox="0 0 64 64" width="512" xmlns="http://www.w3.org/2000/svg"><g id="Layer_11" data-name="Layer 11"><path d="m55 7h2a5 5 0 0 1 5 5v45a5 5 0 0 1 -5 5h-50a5 5 0 0 1 -5-5v-45a5 5 0 0 1 5-5z" fill="#bac5d9"/><path d="m55 7h-48a5 5 0 0 0 -5 5v45a4.939 4.939 0 0 0 .092.908 4.939 4.939 0 0 0 .908.092h50a5 5 0 0 0 5-5v-45a4.939 4.939 0 0 0 -.092-.908 4.939 4.939 0 0 0 -.908-.092z" fill="#dfe5f0"/><rect fill="#f2f5f9" height="29" rx="4" width="48" x="6" y="25"/><path d="m25.806 34.667a12 12 0 0 1 22.494 8.382 6.5 6.5 0 0 1 5.7 6.451 6.5 6.5 0 0 1 -6.5 6.5h-32a6.5 6.5 0 0 1 -6.5-6.5 6.5 6.5 0 0 1 5-6.326h.026q-.026-.335-.026-.674a8.5 8.5 0 0 1 11.808-7.832z" fill="#b3dafe"/><path d="m9.086 50.506a6.5 6.5 0 0 0 6.414 5.494h32a6.5 6.5 0 0 0 6.416-5.506 6.5 6.5 0 0 0 -5.616-5.445 11.868 11.868 0 0 0 .508-1.914c-.167-.034-.336-.065-.508-.086a11.993 11.993 0 0 0 .653-2.983 12 12 0 0 0 -23.147-3.4 8.5 8.5 0 0 0 -11.806 7.834q0 .339.026.672h-.026a6.5 6.5 0 0 0 -4.914 5.334z" fill="#c4e2ff"/><path d="m25.044 39a1.011 1.011 0 0 1 -1-1.11 12.834 12.834 0 0 1 .47-2.531 1.012 1.012 0 0 1 1.332-.676.986.986 0 0 1 .6 1.187 10.951 10.951 0 0 0 -.416 2.24.984.984 0 0 1 -.986.89z" fill="#b3dafe"/><path d="m29.571 37.02a1.009 1.009 0 0 1 -.571-1.388 10.029 10.029 0 0 1 7.881-5.569 1.008 1.008 0 0 1 1.118 1 .984.984 0 0 1 -.866.985 8.022 8.022 0 0 0 -6.346 4.485.985.985 0 0 1 -1.216.487z" fill="#fff"/><path d="m57 7h-50a5 5 0 0 0 -5 5v9h60v-9a5 5 0 0 0 -5-5z" fill="#f44a6e"/><path d="m53 7h-46a5 5 0 0 0 -5 5v9h56v-9a5 5 0 0 0 -5-5z" fill="#ff5773"/><rect fill="#97a6bf" height="10" rx="2" width="4" x="37" y="2"/><rect fill="#97a6bf" height="10" rx="2" width="4" x="23" y="2"/><rect fill="#97a6bf" height="10" rx="2" width="4" x="9" y="2"/><rect fill="#97a6bf" height="10" rx="2" width="4" x="51" y="2"/><g fill="#bac5d9"><path d="m39 2a2 2 0 0 0 -.807.172 2 2 0 0 0 -.193.846v6a2 2 0 0 0 2 2 1.98 1.98 0 0 0 .807-.173 1.992 1.992 0 0 0 .193-.845v-6a2 2 0 0 0 -2-2z"/><path d="m25 2a2 2 0 0 0 -.807.172 2 2 0 0 0 -.193.846v6a2 2 0 0 0 2 2 1.98 1.98 0 0 0 .807-.173 1.992 1.992 0 0 0 .193-.845v-6a2 2 0 0 0 -2-2z"/><path d="m11 2a2 2 0 0 0 -.807.172 2 2 0 0 0 -.193.846v6a2 2 0 0 0 2 2 1.98 1.98 0 0 0 .807-.173 1.992 1.992 0 0 0 .193-.845v-6a2 2 0 0 0 -2-2z"/><path d="m53 2a2 2 0 0 0 -.807.172 2 2 0 0 0 -.193.846v6a2 2 0 0 0 2 2 1.98 1.98 0 0 0 .807-.173 1.992 1.992 0 0 0 .193-.845v-6a2 2 0 0 0 -2-2z"/></g></g></svg>