<svg height="512" viewBox="0 0 64 64" width="512" xmlns="http://www.w3.org/2000/svg"><g id="Layer_25" data-name="Layer 25"><path d="m25.42 18.447a10.2 10.2 0 0 0 -3.822-.736 9.6 9.6 0 0 0 -9.822 9.365q0 .373.03.74h-.031a7.112 7.112 0 0 0 .83 14.084h.009a7.587 7.587 0 0 1 13.336.052h9.15.005a4.418 4.418 0 0 1 1.255-.963 4.456 4.456 0 0 1 -.028-.493 4.581 4.581 0 0 1 4.668-4.496 4.76 4.76 0 0 1 3.1 1.131 7.574 7.574 0 0 1 13.815-1.253 6.928 6.928 0 0 0 .085-1.089 7.292 7.292 0 0 0 -6.587-7.108 12.637 12.637 0 0 0 .809-4.46c0-7.3-6.208-13.221-13.866-13.221a13.872 13.872 0 0 0 -12.936 8.447" fill="#b3dafe"/><path d="m51.413 31.691a12.656 12.656 0 0 0 .783-3.874 7.757 7.757 0 0 0 -.783-.136 12.549 12.549 0 0 0 .637-2.43 13.666 13.666 0 0 0 -13.694-11.242 13.872 13.872 0 0 0 -12.936 8.447 10.2 10.2 0 0 0 -3.822-.736 9.6 9.6 0 0 0 -9.822 9.365q0 .374.03.74h-.031a7.376 7.376 0 0 0 -5.475 4.975 7.425 7.425 0 0 0 6.3 5.1h.009a7.587 7.587 0 0 1 13.336.052h9.155.005a4.418 4.418 0 0 1 1.255-.963 4.456 4.456 0 0 1 -.028-.493 4.581 4.581 0 0 1 4.668-4.496 4.76 4.76 0 0 1 3.1 1.131 7.435 7.435 0 0 1 7.17-5.17 7.7 7.7 0 0 1 2.63.467 7.668 7.668 0 0 0 -2.487-.737z" fill="#c4e2ff"/><path d="m12.1 43.127a7.435 7.435 0 0 1 7.171-5.171 7.328 7.328 0 0 1 7.466 7.18 6.971 6.971 0 0 1 -.151 1.447v.011a4.3 4.3 0 0 1 3.414 4.152 4.35 4.35 0 0 1 -4.433 4.263h-19.134a4.35 4.35 0 0 1 -4.433-4.263 4.244 4.244 0 0 1 2.362-3.77 4.47 4.47 0 0 1 -.028-.493 4.58 4.58 0 0 1 4.666-4.483 4.759 4.759 0 0 1 3.1 1.132z" fill="#d8ecfe"/><path d="m44.1 37.127a7.435 7.435 0 0 1 7.171-5.171 7.328 7.328 0 0 1 7.466 7.18 6.971 6.971 0 0 1 -.151 1.447v.011a4.3 4.3 0 0 1 3.414 4.152 4.35 4.35 0 0 1 -4.433 4.263h-19.134a4.35 4.35 0 0 1 -4.433-4.263 4.244 4.244 0 0 1 2.362-3.77 4.47 4.47 0 0 1 -.028-.493 4.58 4.58 0 0 1 4.666-4.488 4.759 4.759 0 0 1 3.1 1.132z" fill="#d8ecfe"/><path d="m11.253 41.611a4.719 4.719 0 0 0 -1.02-.394 7.74 7.74 0 0 0 1.02.394z" fill="#b3dafe"/><path d="m11.932 45.127h-.122a.948.948 0 0 1 -.937-1.077c.008-.057.016-.114.025-.17a.949.949 0 0 1 1.209-.76l.117.036a.928.928 0 0 1 .65 1.034c-.008.044-.014.089-.02.134a.929.929 0 0 1 -.922.803z" fill="#d8ecfe"/><path d="m43.932 39.137h-.122a.949.949 0 0 1 -.937-1.077c.008-.057.016-.114.025-.17a.949.949 0 0 1 1.209-.76l.117.036a.927.927 0 0 1 .65 1.033c-.008.045-.014.09-.02.135a.929.929 0 0 1 -.922.803z" fill="#d8ecfe"/><path d="m38 15.982v-2a10 10 0 0 0 -9.469 6.768l1.893.645a8 8 0 0 1 7.576-5.413z"/><path d="m59.7 39.9c.025-.255.037-.509.037-.764a7.891 7.891 0 0 0 -.8-3.459 7.69 7.69 0 0 0 .072-.9 8.234 8.234 0 0 0 -6.292-7.877 13.632 13.632 0 0 0 .506-3.689c0-7.842-6.669-14.221-14.868-14.221a14.926 14.926 0 0 0 -13.455 8.21 11.209 11.209 0 0 0 -3.3-.5 10.615 10.615 0 0 0 -10.823 10.347 8.159 8.159 0 0 0 -5.777 7.732 8.028 8.028 0 0 0 3.088 6.284 5.552 5.552 0 0 0 -4.755 5.35 5.205 5.205 0 0 0 -2.333 4.323 5.356 5.356 0 0 0 5.434 5.264h19.132a5.357 5.357 0 0 0 5.434-5.264 5.232 5.232 0 0 0 -3.3-4.844q.037-.383.037-.765a7.881 7.881 0 0 0 -.316-2.187h5.915a5.128 5.128 0 0 0 -.336 1.806 5.357 5.357 0 0 0 5.434 5.264h19.132a5.358 5.358 0 0 0 5.434-5.264 5.235 5.235 0 0 0 -3.3-4.846zm-30.7 10.836a3.356 3.356 0 0 1 -3.434 3.264h-19.132a3.356 3.356 0 0 1 -3.434-3.264 3.241 3.241 0 0 1 1.815-2.878 1 1 0 0 0 .539-1 3.675 3.675 0 0 1 -.021-.38 3.585 3.585 0 0 1 3.667-3.493 3.807 3.807 0 0 1 1.963.541 7.834 7.834 0 0 0 -.163 1.6h2a6.336 6.336 0 0 1 6.467-6.181 6.336 6.336 0 0 1 6.466 6.181 6.036 6.036 0 0 1 -.119 1.2 1 1 0 0 0 .746 1.239 3.288 3.288 0 0 1 2.64 3.171zm-9.733-13.79a8.527 8.527 0 0 0 -7.167 3.854 6.094 6.094 0 0 1 -.165-12 1 1 0 0 0 .87-1.072c-.018-.218-.028-.438-.028-.661a8.613 8.613 0 0 1 8.823-8.367 9.237 9.237 0 0 1 2.54.356 13.589 13.589 0 0 0 -.651 4.153h2c0-6.738 5.772-12.221 12.866-12.221s12.868 5.483 12.868 12.221a11.624 11.624 0 0 1 -.746 4.108 1 1 0 0 0 .819 1.346 6.431 6.431 0 0 1 5.365 4.172 8.607 8.607 0 0 0 -5.394-1.881 8.5 8.5 0 0 0 -7.643 4.662 5.82 5.82 0 0 0 -2.624-.621 5.589 5.589 0 0 0 -5.667 5.427 5.425 5.425 0 0 0 -.644.518h-8.162a8.523 8.523 0 0 0 -7.26-3.994zm38.3 11.064h-19.133a3.356 3.356 0 0 1 -3.434-3.264 3.247 3.247 0 0 1 1.815-2.88 1 1 0 0 0 .539-1 3.66 3.66 0 0 1 -.021-.38 3.585 3.585 0 0 1 3.667-3.491 3.81 3.81 0 0 1 1.963.541 7.834 7.834 0 0 0 -.163 1.6h2a6.473 6.473 0 0 1 12.933 0 6.034 6.034 0 0 1 -.124 1.216 1 1 0 0 0 .751 1.217 3.29 3.29 0 0 1 2.64 3.177 3.356 3.356 0 0 1 -3.434 3.264z"/></g></svg>