<svg height="512" viewBox="0 0 64 64" width="512" xmlns="http://www.w3.org/2000/svg"><g id="Layer_5" data-name="Layer 5"><circle cx="23" cy="21" fill="#fac600" r="10"/><ellipse cx="24.5" cy="21" fill="#fed402" rx="8.5" ry="9.875"/><path d="m23.635 30.522a16 16 0 0 1 31.04 7.7v.024a9.5 9.5 0 0 1 7.325 9.254 9.5 9.5 0 0 1 -9.5 9.5h-41a9.5 9.5 0 0 1 -9.5-9.5 9.5 9.5 0 0 1 5.061-8.4 10 10 0 0 1 16.581-8.576" fill="#b3dafe"/><path d="m54.073 40.742.005-.023a15.583 15.583 0 0 0 -30.222-7.5 9.737 9.737 0 0 0 -16.198 7.281 9.938 9.938 0 0 0 .058 1.07 9.225 9.225 0 0 0 -4.7 10.179 9.492 9.492 0 0 0 8.484 5.251h41a9.492 9.492 0 0 0 8.488-5.251 9.231 9.231 0 0 0 -6.915-11.007z" fill="#c4e2ff"/><path d="m22 4h2v4h-2z"/><path d="m6 20h4v2h-4z"/><path d="m31.607 9.393h4v2h-4z" transform="matrix(.707 -.707 .707 .707 2.494 26.808)"/><path d="m11.393 8.393h2v4h-2z" transform="matrix(.707 -.707 .707 .707 -3.719 11.808)"/><path d="m55.812 37.532a17 17 0 0 0 -22.038-18.709 11 11 0 0 0 -21.774 2.177 10.913 10.913 0 0 0 2.071 6.408 11.011 11.011 0 0 0 -8.071 10.592c0 .183 0 .365.013.545a10.5 10.5 0 0 0 5.487 19.455h41a10.5 10.5 0 0 0 3.312-20.468zm-41.812-16.532a9 9 0 0 1 17.881-1.425 17.086 17.086 0 0 0 -8.739 9.3 10.982 10.982 0 0 0 -6.142-1.875c-.224 0-.443.02-.664.034a8.932 8.932 0 0 1 -2.336-6.034zm38.5 35h-41a8.5 8.5 0 0 1 -3.972-16.017 1 1 0 0 0 .526-.993 9 9 0 0 1 14.451-8.111 16.976 16.976 0 0 0 -.505 4.121h2a15 15 0 1 1 29.693 3.034 1 1 0 0 0 .749 1.189 8.5 8.5 0 0 1 -1.942 16.777z"/><path d="m27.168 29.607 1.82.831a11.032 11.032 0 0 1 10.012-6.438v-2a13.039 13.039 0 0 0 -11.832 7.607z"/><path d="m41 22h2v2h-2z"/></g></svg>