<?xml version="1.0"?>
<svg xmlns="http://www.w3.org/2000/svg" width="512" height="512" viewBox="0 0 128 128"><g><g><path d="M113.563,33.343a15.052,15.052,0,0,1-4.6-.725l-4.521-1.452a10.7,10.7,0,0,0-6.545,0l-3.414,1.1a18.659,18.659,0,0,1-11.415,0l-3.411-1.1a10.7,10.7,0,0,0-6.546,0L68.6,32.615a14.944,14.944,0,0,1-9.214,0l-4.505-1.448a10.71,10.71,0,0,0-6.55,0l-3.405,1.094a18.677,18.677,0,0,1-11.423,0l-3.4-1.094a10.7,10.7,0,0,0-6.547,0l-3.409,1.1a18.664,18.664,0,0,1-11.419,0L4.256,30.827a3.608,3.608,0,0,1-2.332-4.54l.228-.709a3.609,3.609,0,0,1,4.54-2.332l4.463,1.434a10.7,10.7,0,0,0,6.547,0l3.409-1.095a18.656,18.656,0,0,1,11.419,0l3.405,1.094a10.707,10.707,0,0,0,6.549,0l3.406-1.094a18.672,18.672,0,0,1,11.424,0l3.4,1.093a10.707,10.707,0,0,0,6.549,0l3.409-1.1a18.662,18.662,0,0,1,11.416,0L85.5,24.68a10.71,10.71,0,0,0,6.55,0l3.411-1.1a18.663,18.663,0,0,1,11.414,0l3.418,1.1a10.7,10.7,0,0,0,6.546,0l4.472-1.436a3.611,3.611,0,0,1,4.541,2.334l.227.708a3.609,3.609,0,0,1-2.333,4.54l-5.576,1.791A15.061,15.061,0,0,1,113.563,33.343Z" fill="#beebfa"/><path d="M113.563,51.335a15.057,15.057,0,0,1-4.6-.725L103.334,48.8A7.042,7.042,0,0,0,99,48.8l-4.513,1.45a18.669,18.669,0,0,1-11.423,0l-3.407-1.094a10.7,10.7,0,0,0-6.546,0L69.7,50.252a18.668,18.668,0,0,1-11.425,0l-3.4-1.092a10.707,10.707,0,0,0-6.549,0l-3.405,1.095a18.673,18.673,0,0,1-11.422,0l-3.405-1.094a10.7,10.7,0,0,0-6.55,0l-4.508,1.449a15.037,15.037,0,0,1-4.493.725,3.61,3.61,0,0,1-3.436-4.722l.241-.751A3.544,3.544,0,0,1,14.6,43.367a7.154,7.154,0,0,0,2-.34l4.508-1.449a18.663,18.663,0,0,1,11.421,0l3.406,1.094a10.71,10.71,0,0,0,6.55,0l3.405-1.094a18.672,18.672,0,0,1,11.424,0l3.4,1.093a10.71,10.71,0,0,0,6.55,0l3.41-1.095a18.662,18.662,0,0,1,11.416,0l3.411,1.1a10.7,10.7,0,0,0,6.547,0l3.409-1.095a18.667,18.667,0,0,1,11.42,0l4.518,1.451a7.1,7.1,0,0,0,2,.339,3.546,3.546,0,0,1,3.249,2.5l.259.806a3.553,3.553,0,0,1-3.292,4.667Z" fill="#9ee2f8"/><path d="M113.563,69.327a15.023,15.023,0,0,1-4.6-.726l-4.521-1.452a10.7,10.7,0,0,0-6.545,0l-3.414,1.1a18.666,18.666,0,0,1-11.415,0l-3.411-1.1a10.705,10.705,0,0,0-6.546,0L68.6,68.6a14.958,14.958,0,0,1-9.214,0l-4.505-1.448a10.7,10.7,0,0,0-6.55,0l-3.405,1.094a18.669,18.669,0,0,1-11.423,0l-3.4-1.094a10.7,10.7,0,0,0-6.547,0l-3.409,1.095a18.664,18.664,0,0,1-11.419,0L4.256,66.811A3.61,3.61,0,0,1,1.924,62.27l.228-.708a3.608,3.608,0,0,1,4.54-2.332l4.463,1.434a10.7,10.7,0,0,0,6.547,0l3.409-1.095a18.664,18.664,0,0,1,11.419,0l3.405,1.094a10.7,10.7,0,0,0,6.55,0l3.406-1.095a18.663,18.663,0,0,1,11.421,0l3.4,1.093a10.71,10.71,0,0,0,6.55,0l3.409-1.095a18.654,18.654,0,0,1,11.416,0l3.411,1.1a10.7,10.7,0,0,0,6.547,0l3.409-1.095a18.674,18.674,0,0,1,11.42,0l3.415,1.1a10.7,10.7,0,0,0,6.546,0l4.472-1.436a3.61,3.61,0,0,1,4.541,2.333l.227.709a3.608,3.608,0,0,1-2.333,4.539L118.167,68.6A15.032,15.032,0,0,1,113.563,69.327Z" fill="#beebfa"/><path d="M113.563,87.318a15.026,15.026,0,0,1-4.6-.725l-4.522-1.452a10.705,10.705,0,0,0-6.546,0l-3.408,1.095a18.667,18.667,0,0,1-11.42,0l-3.413-1.1a10.694,10.694,0,0,0-6.545,0L69.7,86.236a18.662,18.662,0,0,1-11.423,0l-3.4-1.093a10.7,10.7,0,0,0-6.55,0l-3.405,1.094a18.673,18.673,0,0,1-11.422,0l-3.405-1.094a10.71,10.71,0,0,0-6.55,0l-4.508,1.449a15.07,15.07,0,0,1-4.493.726A3.61,3.61,0,0,1,11.107,82.6l.241-.752A3.546,3.546,0,0,1,14.6,79.35a7.118,7.118,0,0,0,2-.34l4.508-1.449a18.673,18.673,0,0,1,11.422,0l3.405,1.094a10.71,10.71,0,0,0,6.55,0l3.405-1.094a18.669,18.669,0,0,1,11.423,0l3.4,1.093a10.71,10.71,0,0,0,6.55,0l3.4-1.093a18.68,18.68,0,0,1,11.424,0l3.41,1.095a10.707,10.707,0,0,0,6.549,0l3.406-1.094a18.671,18.671,0,0,1,11.419,0l4.52,1.451a7.134,7.134,0,0,0,2,.34,3.545,3.545,0,0,1,3.249,2.494l.259.806a3.553,3.553,0,0,1-3.292,4.667Z" fill="#9ee2f8"/><path d="M113.563,105.31a15.052,15.052,0,0,1-4.6-.725l-4.52-1.452a10.7,10.7,0,0,0-6.547,0l-3.413,1.1a18.659,18.659,0,0,1-11.415,0l-3.411-1.1a10.7,10.7,0,0,0-6.546,0L68.6,104.582a14.958,14.958,0,0,1-9.214,0l-4.506-1.448a10.707,10.707,0,0,0-6.549,0l-3.405,1.094a18.677,18.677,0,0,1-11.423,0l-3.4-1.094a10.709,10.709,0,0,0-6.552,0l-3.406,1.094a18.664,18.664,0,0,1-11.419,0l-4.463-1.434a3.609,3.609,0,0,1-2.332-4.54l.228-.709a3.609,3.609,0,0,1,4.54-2.332l4.463,1.434a10.7,10.7,0,0,0,6.547,0l3.409-1.095a18.656,18.656,0,0,1,11.419,0l3.405,1.094a10.707,10.707,0,0,0,6.549,0l3.406-1.094a18.672,18.672,0,0,1,11.424,0l3.4,1.092a10.7,10.7,0,0,0,6.549,0l3.409-1.1a18.669,18.669,0,0,1,11.416,0l3.409,1.1a10.71,10.71,0,0,0,6.55,0l3.411-1.1a18.663,18.663,0,0,1,11.414,0l3.418,1.1a10.7,10.7,0,0,0,6.546,0l4.472-1.436a3.61,3.61,0,0,1,4.541,2.334l.227.708a3.609,3.609,0,0,1-2.333,4.54l-5.576,1.791A15.061,15.061,0,0,1,113.563,105.31Z" fill="#beebfa"/></g><g><path d="M113.562,35.093a16.774,16.774,0,0,1-5.138-.809L103.9,32.832a8.9,8.9,0,0,0-5.473,0l-3.414,1.1a20.3,20.3,0,0,1-12.486,0l-3.412-1.1a8.9,8.9,0,0,0-5.474,0L69.13,34.281a16.685,16.685,0,0,1-10.285,0l-4.5-1.448a8.913,8.913,0,0,0-5.48,0l-3.4,1.094a20.3,20.3,0,0,1-12.493,0l-3.4-1.094a8.9,8.9,0,0,0-5.477,0l-3.409,1.094a20.291,20.291,0,0,1-12.489,0L3.721,32.493A5.365,5.365,0,0,1,.258,25.752l.227-.709A5.366,5.366,0,0,1,7.227,21.58l4.463,1.434a8.911,8.911,0,0,0,5.477,0l3.409-1.095a20.291,20.291,0,0,1,12.489,0l3.406,1.095a8.906,8.906,0,0,0,5.478,0l3.405-1.094a20.306,20.306,0,0,1,12.5,0l3.4,1.093a8.9,8.9,0,0,0,5.478,0l3.41-1.1a20.3,20.3,0,0,1,12.486,0l3.409,1.1a8.923,8.923,0,0,0,5.481,0l3.41-1.1a20.29,20.29,0,0,1,12.484,0l3.418,1.1a8.907,8.907,0,0,0,5.476,0l4.472-1.437a5.367,5.367,0,0,1,6.742,3.464l.227.709a5.365,5.365,0,0,1-3.464,6.741L118.7,34.284A16.777,16.777,0,0,1,113.562,35.093Zm-12.4-6.193a12.44,12.44,0,0,1,3.807.6l4.521,1.452a13.29,13.29,0,0,0,8.138,0l5.576-1.791a1.861,1.861,0,0,0,1.2-2.339l-.227-.708a1.861,1.861,0,0,0-2.339-1.2l-4.473,1.436a12.384,12.384,0,0,1-7.616,0l-3.418-1.1a16.821,16.821,0,0,0-10.344,0l-3.41,1.095a12.385,12.385,0,0,1-7.621,0l-3.409-1.095a16.82,16.82,0,0,0-10.346,0L67.8,26.346a12.394,12.394,0,0,1-7.619,0l-3.4-1.093a16.816,16.816,0,0,0-10.354,0l-3.406,1.094a12.394,12.394,0,0,1-7.619,0L32,25.252a16.822,16.822,0,0,0-10.349,0l-3.409,1.095a12.373,12.373,0,0,1-7.617,0L6.157,24.912a1.862,1.862,0,0,0-2.34,1.2l-.227.708a1.861,1.861,0,0,0,1.2,2.339L9.254,30.6a16.819,16.819,0,0,0,10.348,0l3.41-1.094a12.373,12.373,0,0,1,7.617,0l3.4,1.094a16.835,16.835,0,0,0,10.353,0l3.4-1.094a12.367,12.367,0,0,1,7.62,0l4.5,1.447a13.217,13.217,0,0,0,8.143,0l4.513-1.45a12.366,12.366,0,0,1,7.615,0L83.6,30.6a16.813,16.813,0,0,0,10.344,0l3.414-1.1A12.436,12.436,0,0,1,101.166,28.9Z"/><path d="M113.615,53.084a16.819,16.819,0,0,1-5.191-.809L102.8,50.469a5.3,5.3,0,0,0-3.266,0l-4.514,1.45a20.31,20.31,0,0,1-12.5,0l-3.407-1.094a8.886,8.886,0,0,0-5.474,0l-3.409,1.094a20.3,20.3,0,0,1-12.495,0l-3.4-1.092a8.888,8.888,0,0,0-5.479,0l-3.4,1.094a20.315,20.315,0,0,1-12.492,0l-3.4-1.094a8.917,8.917,0,0,0-5.479,0l-4.509,1.448a16.771,16.771,0,0,1-5.013.81,5.308,5.308,0,0,1-4.329-2.176,5.4,5.4,0,0,1-.788-4.831l.242-.751a5.286,5.286,0,0,1,4.873-3.708,5.294,5.294,0,0,0,1.507-.257l4.51-1.448a20.283,20.283,0,0,1,12.491,0l3.407,1.094a8.914,8.914,0,0,0,5.478,0l3.405-1.094a20.3,20.3,0,0,1,12.5,0l3.4,1.092a8.9,8.9,0,0,0,5.479,0l3.411-1.1a20.293,20.293,0,0,1,12.485,0,1.75,1.75,0,1,1-1.07,3.332,16.817,16.817,0,0,0-10.345,0l-3.41,1.1a12.378,12.378,0,0,1-7.621,0l-3.4-1.092a16.816,16.816,0,0,0-10.354,0l-3.406,1.094a12.379,12.379,0,0,1-7.619,0l-3.406-1.094a16.818,16.818,0,0,0-10.35,0l-4.509,1.448a8.827,8.827,0,0,1-2.5.424A1.788,1.788,0,0,0,13.015,46.4l-.242.751a1.861,1.861,0,0,0,.278,1.689,1.8,1.8,0,0,0,1.466.748h.013a13.287,13.287,0,0,0,3.971-.642l4.509-1.448a12.372,12.372,0,0,1,7.619,0l3.4,1.094a16.839,16.839,0,0,0,10.352,0l3.4-1.094a12.382,12.382,0,0,1,7.62,0l3.4,1.092a16.838,16.838,0,0,0,10.354,0l3.408-1.094a12.366,12.366,0,0,1,7.615,0L83.6,48.586a16.842,16.842,0,0,0,10.353,0l4.513-1.449a8.768,8.768,0,0,1,5.409,0l5.624,1.806a13.266,13.266,0,0,0,4.068.641,1.69,1.69,0,0,0,1.4-.711,1.849,1.849,0,0,0,.271-1.67l-.258-.807a1.791,1.791,0,0,0-1.625-1.279,8.844,8.844,0,0,1-2.5-.424l-4.517-1.45a16.825,16.825,0,0,0-10.35,0,1.75,1.75,0,1,1-1.07-3.332,20.294,20.294,0,0,1,12.49,0l4.519,1.45a5.371,5.371,0,0,0,1.507.257,5.29,5.29,0,0,1,4.873,3.709l.258.806a5.383,5.383,0,0,1-.772,4.8A5.144,5.144,0,0,1,113.615,53.084Z"/><path d="M63.989,71.077a16.783,16.783,0,0,1-5.143-.812l-4.5-1.448a8.913,8.913,0,0,0-5.48,0l-3.4,1.095a20.289,20.289,0,0,1-12.493,0l-3.4-1.094a8.911,8.911,0,0,0-5.477,0l-3.409,1.095a20.306,20.306,0,0,1-12.489,0L3.721,68.477A5.366,5.366,0,0,1,.258,61.735l.227-.709a5.369,5.369,0,0,1,6.742-3.463L11.69,59a8.911,8.911,0,0,0,5.477,0l3.409-1.1a20.291,20.291,0,0,1,12.489,0L36.47,59a8.9,8.9,0,0,0,5.479,0L45.356,57.9a20.3,20.3,0,0,1,12.492,0L61.248,59a8.9,8.9,0,0,0,5.48,0L70.137,57.9a20.282,20.282,0,0,1,12.486,0L86.034,59a8.911,8.911,0,0,0,5.477,0L94.92,57.9a20.3,20.3,0,0,1,12.49,0l3.415,1.1a8.893,8.893,0,0,0,5.476,0l4.472-1.436a5.366,5.366,0,0,1,6.742,3.464l.227.708a5.366,5.366,0,0,1-3.464,6.742L118.7,70.268a16.8,16.8,0,0,1-10.278,0L103.9,68.815a8.9,8.9,0,0,0-5.473,0l-3.414,1.1a20.3,20.3,0,0,1-12.486,0l-3.412-1.1a8.9,8.9,0,0,0-5.474,0l-4.513,1.45A16.756,16.756,0,0,1,63.989,71.077Zm37.177-6.194a12.44,12.44,0,0,1,3.807.6l4.521,1.452a13.282,13.282,0,0,0,8.138,0l5.576-1.79a1.861,1.861,0,0,0,1.2-2.339l-.227-.709a1.863,1.863,0,0,0-2.339-1.2l-4.473,1.436a12.369,12.369,0,0,1-7.616,0l-3.415-1.1a16.825,16.825,0,0,0-10.35,0L92.581,62.33a12.373,12.373,0,0,1-7.617,0l-3.411-1.1a16.82,16.82,0,0,0-10.346,0L67.8,62.329a12.385,12.385,0,0,1-7.621,0l-3.4-1.093a16.81,16.81,0,0,0-10.35,0L43.019,62.33a12.382,12.382,0,0,1-7.62,0L32,61.235a16.837,16.837,0,0,0-10.349,0l-3.409,1.1a12.387,12.387,0,0,1-7.617,0L6.157,60.9a1.869,1.869,0,0,0-2.34,1.2l-.227.708a1.862,1.862,0,0,0,1.2,2.339l4.463,1.434a16.826,16.826,0,0,0,10.348,0l3.41-1.095a12.373,12.373,0,0,1,7.617,0l3.4,1.094a16.82,16.82,0,0,0,10.353,0l3.4-1.095a12.375,12.375,0,0,1,7.62,0l4.5,1.448a13.21,13.21,0,0,0,8.143,0l4.513-1.45a12.381,12.381,0,0,1,7.615,0l3.413,1.1a16.813,16.813,0,0,0,10.344,0l3.414-1.1A12.436,12.436,0,0,1,101.166,64.883Z"/><path d="M113.615,89.068a16.849,16.849,0,0,1-5.191-.809L103.9,86.807a8.886,8.886,0,0,0-5.474,0L95.019,87.9a20.3,20.3,0,0,1-12.491,0l-3.414-1.095a8.879,8.879,0,0,0-5.474,0L70.234,87.9a20.292,20.292,0,0,1-12.494,0l-3.4-1.092a8.909,8.909,0,0,0-5.481,0l-3.4,1.094a20.3,20.3,0,0,1-12.492,0l-3.4-1.094a8.924,8.924,0,0,0-5.479,0l-4.509,1.449a16.781,16.781,0,0,1-5.014.809h-.043a5.268,5.268,0,0,1-4.284-2.175,5.4,5.4,0,0,1-.789-4.832l.242-.751A5.289,5.289,0,0,1,14.556,77.6a5.346,5.346,0,0,0,1.508-.256L20.572,75.9a20.3,20.3,0,0,1,12.493,0l3.406,1.094A1.75,1.75,0,1,1,35.4,80.321L32,79.227a16.824,16.824,0,0,0-10.352,0l-4.508,1.449a8.873,8.873,0,0,1-2.5.423,1.789,1.789,0,0,0-1.625,1.279l-.242.751a1.861,1.861,0,0,0,.278,1.689,1.8,1.8,0,0,0,1.465.748h.014a13.259,13.259,0,0,0,3.971-.641l4.509-1.449a12.379,12.379,0,0,1,7.619,0l3.4,1.094a16.839,16.839,0,0,0,10.352,0l3.4-1.094a12.378,12.378,0,0,1,7.621,0l3.4,1.092a16.82,16.82,0,0,0,10.353,0l3.405-1.094a12.362,12.362,0,0,1,7.616,0L83.6,84.57a16.815,16.815,0,0,0,10.349,0l3.408-1.094a12.369,12.369,0,0,1,7.616,0l4.522,1.452a13.3,13.3,0,0,0,4.068.641,1.692,1.692,0,0,0,1.4-.711,1.851,1.851,0,0,0,.271-1.671l-.258-.806a1.791,1.791,0,0,0-1.626-1.28,8.825,8.825,0,0,1-2.494-.423l-4.519-1.451a16.829,16.829,0,0,0-10.349,0l-3.406,1.094a12.379,12.379,0,0,1-7.619,0l-3.41-1.095a16.845,16.845,0,0,0-10.354,0l-3.4,1.094a1.75,1.75,0,0,1-1.071-3.332l3.4-1.094a20.329,20.329,0,0,1,12.494,0l3.41,1.095a8.9,8.9,0,0,0,5.479,0L94.919,75.9a20.3,20.3,0,0,1,12.489,0l4.521,1.451a5.327,5.327,0,0,0,1.506.256,5.291,5.291,0,0,1,4.874,3.709l.258.807a5.383,5.383,0,0,1-.772,4.8A5.144,5.144,0,0,1,113.615,89.068Z"/><path d="M57.313,79.313a1.769,1.769,0,0,1-.536-.085,16.806,16.806,0,0,0-10.351,0A1.75,1.75,0,0,1,45.355,75.9a20.3,20.3,0,0,1,12.5,0,1.751,1.751,0,0,1-.537,3.417Z"/><path d="M63.989,107.06a16.753,16.753,0,0,1-5.143-.812l-4.5-1.448a8.913,8.913,0,0,0-5.48,0l-3.4,1.094a20.289,20.289,0,0,1-12.493,0l-3.4-1.094a8.919,8.919,0,0,0-5.482,0L20.673,105.9a20.291,20.291,0,0,1-12.489,0L3.721,104.46A5.365,5.365,0,0,1,.258,97.718l.227-.708a5.369,5.369,0,0,1,6.742-3.463l4.463,1.434a8.911,8.911,0,0,0,5.477,0l3.409-1.095a20.306,20.306,0,0,1,12.489,0l3.406,1.094a8.884,8.884,0,0,0,5.478,0l3.405-1.094a20.3,20.3,0,0,1,12.5,0l3.4,1.092a8.9,8.9,0,0,0,5.478,0l3.41-1.1a20.3,20.3,0,0,1,12.486,0l3.409,1.1a8.909,8.909,0,0,0,5.481,0l3.41-1.1a20.29,20.29,0,0,1,12.484,0l3.418,1.1a8.893,8.893,0,0,0,5.476,0l4.472-1.436a5.36,5.36,0,0,1,6.742,3.464l.227.709a5.365,5.365,0,0,1-3.464,6.741l-5.576,1.791a16.788,16.788,0,0,1-10.278,0L103.9,104.8a8.922,8.922,0,0,0-5.476,0l-3.413,1.1a20.289,20.289,0,0,1-12.486,0l-3.412-1.1a8.9,8.9,0,0,0-5.474,0l-4.513,1.449A16.726,16.726,0,0,1,63.989,107.06Zm37.177-6.193a12.447,12.447,0,0,1,3.809.6l4.519,1.452a13.3,13.3,0,0,0,8.138,0l5.576-1.791a1.861,1.861,0,0,0,1.2-2.339l-.227-.708a1.86,1.86,0,0,0-2.339-1.2l-4.473,1.437a12.384,12.384,0,0,1-7.616,0l-3.418-1.1a16.821,16.821,0,0,0-10.344,0l-3.41,1.1a12.371,12.371,0,0,1-7.621,0l-3.409-1.1a16.82,16.82,0,0,0-10.346,0l-3.409,1.1a12.389,12.389,0,0,1-7.62,0l-3.4-1.093a16.816,16.816,0,0,0-10.354,0l-3.406,1.094a12.379,12.379,0,0,1-7.619,0L32,97.219a16.815,16.815,0,0,0-10.349,0l-3.409,1.095a12.373,12.373,0,0,1-7.617,0L6.157,96.879a1.864,1.864,0,0,0-2.34,1.2l-.227.708a1.861,1.861,0,0,0,1.2,2.339l4.463,1.434a16.826,16.826,0,0,0,10.348,0l3.407-1.095a12.392,12.392,0,0,1,7.623,0l3.4,1.093a16.82,16.82,0,0,0,10.353,0l3.4-1.094a12.375,12.375,0,0,1,7.62,0l4.5,1.449a13.224,13.224,0,0,0,8.143,0l4.513-1.45a12.366,12.366,0,0,1,7.615,0l3.413,1.1a16.813,16.813,0,0,0,10.344,0l3.413-1.1A12.447,12.447,0,0,1,101.166,100.867Z"/></g></g></svg>
