<svg height="512" viewBox="0 0 64 64" width="512" xmlns="http://www.w3.org/2000/svg"><g id="Layer_6" data-name="Layer 6"><g fill="#c4e2ff"><path d="m29 55-3.927 1.571a1.707 1.707 0 0 0 -1.073 1.585v.137a1.707 1.707 0 0 0 .5 1.207 1.707 1.707 0 0 0 1.207.5h.137a1.707 1.707 0 0 0 1.585-1.073z"/><path d="m18 55-3.927 1.571a1.707 1.707 0 0 0 -1.073 1.585v.137a1.707 1.707 0 0 0 .5 1.207 1.707 1.707 0 0 0 1.207.5h.137a1.707 1.707 0 0 0 1.585-1.073z"/><path d="m24 46-3.927 1.571a1.707 1.707 0 0 0 -1.073 1.585v.137a1.707 1.707 0 0 0 .5 1.207 1.707 1.707 0 0 0 1.207.5h.137a1.707 1.707 0 0 0 1.585-1.073z"/><path d="m45 46-3.927 1.571a1.707 1.707 0 0 0 -1.073 1.585v.137a1.707 1.707 0 0 0 .5 1.207 1.707 1.707 0 0 0 1.207.5h.137a1.707 1.707 0 0 0 1.585-1.073z"/><path d="m40 55-3.927 1.571a1.707 1.707 0 0 0 -1.073 1.585v.137a1.707 1.707 0 0 0 .5 1.207 1.707 1.707 0 0 0 1.207.5h.137a1.707 1.707 0 0 0 1.585-1.073z"/><path d="m34 46-3.927 1.571a1.707 1.707 0 0 0 -1.073 1.585v.137a1.707 1.707 0 0 0 .5 1.207 1.707 1.707 0 0 0 1.207.5h.137a1.707 1.707 0 0 0 1.585-1.073z"/></g><path d="m23.635 15.522a16 16 0 0 1 31.04 7.7v.024a9.5 9.5 0 0 1 7.325 9.254 9.5 9.5 0 0 1 -9.5 9.5h-41a9.5 9.5 0 0 1 -9.5-9.5 9.5 9.5 0 0 1 5.061-8.4 10 10 0 0 1 16.581-8.576" fill="#b3dafe"/><path d="m54.073 25.742.005-.023a15.583 15.583 0 0 0 -30.222-7.5 9.737 9.737 0 0 0 -16.198 7.281 9.938 9.938 0 0 0 .058 1.07 9.225 9.225 0 0 0 -4.7 10.179 9.492 9.492 0 0 0 8.484 5.251h41a9.492 9.492 0 0 0 8.488-5.251 9.231 9.231 0 0 0 -6.915-11.007z" fill="#c4e2ff"/><path d="m55.812 22.532a17 17 0 0 0 -32.67-8.658 11 11 0 0 0 -17.142 9.126c0 .182 0 .364.014.545a10.5 10.5 0 0 0 5.486 19.455h41a10.5 10.5 0 0 0 3.312-20.468zm-3.312 18.468h-41a8.5 8.5 0 0 1 -3.973-16.017 1 1 0 0 0 .527-.991 9.29 9.29 0 0 1 -.054-.992 9 9 0 0 1 14.505-7.121 16.976 16.976 0 0 0 -.505 4.121h2a15 15 0 0 1 30 0 15.216 15.216 0 0 1 -.311 3.053 1 1 0 0 0 .753 1.17 8.5 8.5 0 0 1 -1.942 16.777z"/><path d="m27.168 14.607 1.82.831a11.03 11.03 0 0 1 10.012-6.438v-2a13.038 13.038 0 0 0 -11.832 7.607z"/><path d="m41 7h2v2h-2z"/><path d="m28.629 54.071-3.929 1.571a2.7 2.7 0 0 0 -1.7 2.514v.137a2.707 2.707 0 0 0 2.707 2.707h.137a2.7 2.7 0 0 0 2.514-1.7l1.571-3.927a1 1 0 0 0 -1.3-1.3zm-2.129 4.484a.7.7 0 0 1 -.657.445h-.137a.707.707 0 0 1 -.706-.707v-.137a.7.7 0 0 1 .444-.656l1.761-.7z"/><path d="m17.629 54.071-3.929 1.571a2.7 2.7 0 0 0 -1.7 2.514v.137a2.707 2.707 0 0 0 2.707 2.707h.137a2.7 2.7 0 0 0 2.514-1.7l1.571-3.927a1 1 0 0 0 -1.3-1.3zm-2.129 4.484a.7.7 0 0 1 -.657.445h-.137a.707.707 0 0 1 -.706-.707v-.137a.7.7 0 0 1 .444-.656l1.761-.7z"/><path d="m24.929 46.371a1 1 0 0 0 -1.3-1.3l-3.929 1.571a2.7 2.7 0 0 0 -1.7 2.514v.137a2.707 2.707 0 0 0 2.707 2.707h.137a2.7 2.7 0 0 0 2.514-1.7zm-3.429 3.184a.7.7 0 0 1 -.657.445h-.137a.707.707 0 0 1 -.706-.707v-.137a.7.7 0 0 1 .444-.656l1.761-.7z"/><path d="m44.629 45.071-3.929 1.571a2.7 2.7 0 0 0 -1.7 2.514v.137a2.707 2.707 0 0 0 2.707 2.707h.137a2.7 2.7 0 0 0 2.514-1.7l1.571-3.927a1 1 0 0 0 -1.3-1.3zm-2.129 4.484a.7.7 0 0 1 -.657.445h-.137a.707.707 0 0 1 -.706-.707v-.137a.7.7 0 0 1 .444-.656l1.761-.7z"/><path d="m39.629 54.071-3.929 1.571a2.7 2.7 0 0 0 -1.7 2.514v.137a2.707 2.707 0 0 0 2.707 2.707h.137a2.7 2.7 0 0 0 2.514-1.7l1.571-3.927a1 1 0 0 0 -1.3-1.3zm-2.129 4.484a.7.7 0 0 1 -.657.445h-.137a.707.707 0 0 1 -.706-.707v-.137a.7.7 0 0 1 .444-.656l1.761-.7z"/><path d="m34.707 45.293a1 1 0 0 0 -1.078-.222l-3.929 1.571a2.7 2.7 0 0 0 -1.7 2.514v.137a2.707 2.707 0 0 0 2.707 2.707h.137a2.7 2.7 0 0 0 2.514-1.7l1.571-3.927a1 1 0 0 0 -.222-1.08zm-3.207 4.262a.7.7 0 0 1 -.657.445h-.137a.707.707 0 0 1 -.706-.707v-.137a.7.7 0 0 1 .444-.656l1.761-.7z"/></g></svg>