<svg height="512" viewBox="0 0 64 64" width="512" xmlns="http://www.w3.org/2000/svg"><g id="Layer_7" data-name="Layer 7"><ellipse cx="23" cy="19.5" fill="#fac600" rx="10" ry="9.5"/><path d="m23.635 24.522a16 16 0 0 1 31.04 7.7v.024a9.5 9.5 0 0 1 7.325 9.254 9.5 9.5 0 0 1 -9.5 9.5h-41a9.5 9.5 0 0 1 -9.5-9.5 9.5 9.5 0 0 1 5.061-8.4 10 10 0 0 1 16.581-8.576" fill="#b3dafe"/><g fill="#c4e2ff"><path d="m54.073 34.742.005-.023a15.583 15.583 0 0 0 -30.222-7.5 9.737 9.737 0 0 0 -16.198 7.281 9.938 9.938 0 0 0 .058 1.07 9.225 9.225 0 0 0 -4.7 10.179 9.492 9.492 0 0 0 8.484 5.251h41a9.492 9.492 0 0 0 8.488-5.251 9.231 9.231 0 0 0 -6.915-11.007z"/><path d="m34.6 55.071-4.084 1.571a1.709 1.709 0 0 0 -1.116 1.585v.137a1.673 1.673 0 0 0 .52 1.207 1.813 1.813 0 0 0 1.255.5h.143a1.775 1.775 0 0 0 1.648-1.071z"/><path d="m24.2 55.071-4.084 1.571a1.709 1.709 0 0 0 -1.116 1.585v.137a1.673 1.673 0 0 0 .52 1.207 1.813 1.813 0 0 0 1.255.5h.143a1.775 1.775 0 0 0 1.648-1.071z"/><path d="m45 55.071-4.084 1.571a1.709 1.709 0 0 0 -1.116 1.585v.137a1.673 1.673 0 0 0 .52 1.207 1.813 1.813 0 0 0 1.255.5h.143a1.775 1.775 0 0 0 1.648-1.071z"/></g><path d="m22 3h2v4h-2z"/><path d="m6 19h4v2h-4z"/><path d="m31.606 8.393h4v2h-4z" transform="matrix(.707 -.707 .707 .707 3.201 26.515)"/><path d="m11.394 7.393h2v4h-2z" transform="matrix(.707 -.707 .707 .707 -3.012 11.513)"/><path d="m55.812 31.532a17.01 17.01 0 0 0 -16.812-19.532 16.881 16.881 0 0 0 -7.1 1.568 10.952 10.952 0 0 0 -19.671 8.537 11 11 0 0 0 -6.229 9.895c0 .182 0 .364.014.545a10.5 10.5 0 0 0 5.486 19.455h41a10.5 10.5 0 0 0 3.312-20.468zm-41.812-11.532a9 9 0 0 1 16.127-5.487 17.091 17.091 0 0 0 -6.985 8.361 10.906 10.906 0 0 0 -9.025-1.474 9.037 9.037 0 0 1 -.117-1.4zm38.5 30h-41a8.5 8.5 0 0 1 -3.973-16.017 1 1 0 0 0 .527-.991 9.29 9.29 0 0 1 -.054-.992 9 9 0 0 1 14.505-7.121 16.976 16.976 0 0 0 -.505 4.121h2a15 15 0 0 1 30 0 15.216 15.216 0 0 1 -.311 3.053 1 1 0 0 0 .753 1.17 8.5 8.5 0 0 1 -1.942 16.777z"/><path d="m27.168 23.678 1.82.83a11.031 11.031 0 0 1 10.012-6.437v-2a13.037 13.037 0 0 0 -11.832 7.607z"/><path d="m41 16.071h2v2h-2z"/><path d="m34.24 54.138-4.084 1.57a2.7 2.7 0 0 0 -1.756 2.519v.137a2.686 2.686 0 0 0 .828 1.928 2.791 2.791 0 0 0 1.948.779h.142a2.767 2.767 0 0 0 2.573-1.689l1.632-3.927a1 1 0 0 0 -1.283-1.317zm-2.2 4.476a.781.781 0 0 1 -.726.457h-.142a.818.818 0 0 1 -.563-.22.674.674 0 0 1 -.213-.487v-.137a.71.71 0 0 1 .474-.652l1.906-.733z"/><path d="m23.842 54.138-4.085 1.57a2.7 2.7 0 0 0 -1.757 2.519v.137a2.694 2.694 0 0 0 .827 1.928 2.794 2.794 0 0 0 1.948.779h.143a2.764 2.764 0 0 0 2.571-1.689l1.634-3.926a1 1 0 0 0 -1.281-1.318zm-2.2 4.476a.783.783 0 0 1 -.726.457h-.143a.813.813 0 0 1 -.561-.219.677.677 0 0 1 -.212-.488v-.137a.709.709 0 0 1 .476-.652l1.9-.733z"/><path d="m44.641 54.138-4.084 1.57a2.7 2.7 0 0 0 -1.757 2.519v.137a2.693 2.693 0 0 0 .828 1.928 2.79 2.79 0 0 0 1.947.779h.143a2.764 2.764 0 0 0 2.571-1.689l1.634-3.926a1 1 0 0 0 -1.282-1.318zm-2.2 4.476a.78.78 0 0 1 -.725.457h-.143a.813.813 0 0 1 -.561-.22.675.675 0 0 1 -.214-.487v-.137a.709.709 0 0 1 .474-.652l1.906-.733z"/></g></svg>