<svg height="512" viewBox="0 0 64 64" width="512" xmlns="http://www.w3.org/2000/svg"><g id="Layer_4" data-name="Layer 4"><path d="m23.635 24.522a16 16 0 0 1 31.04 7.7v.024a9.5 9.5 0 0 1 7.325 9.254 9.5 9.5 0 0 1 -9.5 9.5h-41a9.5 9.5 0 0 1 -9.5-9.5 9.5 9.5 0 0 1 5.061-8.4 10 10 0 0 1 16.581-8.576" fill="#b3dafe"/><path d="m54.073 34.742.005-.023a15.583 15.583 0 0 0 -30.222-7.5 9.737 9.737 0 0 0 -16.198 7.281 9.938 9.938 0 0 0 .058 1.07 9.225 9.225 0 0 0 -4.7 10.179 9.492 9.492 0 0 0 8.484 5.251h41a9.492 9.492 0 0 0 8.488-5.251 9.231 9.231 0 0 0 -6.915-11.007z" fill="#c4e2ff"/><path d="m55.812 31.532a17 17 0 0 0 -32.67-8.658 11 11 0 0 0 -17.142 9.126c0 .183 0 .365.013.545a10.5 10.5 0 0 0 5.487 19.455h41a10.5 10.5 0 0 0 3.312-20.468zm-3.312 18.468h-41a8.5 8.5 0 0 1 -3.972-16.017 1 1 0 0 0 .526-.993 9 9 0 0 1 14.451-8.111 16.976 16.976 0 0 0 -.505 4.121h2a15 15 0 1 1 29.693 3.034 1 1 0 0 0 .749 1.189 8.5 8.5 0 0 1 -1.942 16.777z"/><path d="m27.168 23.607 1.82.831a11.032 11.032 0 0 1 10.012-6.438v-2a13.039 13.039 0 0 0 -11.832 7.607z"/><path d="m41 16h2v2h-2z"/></g></svg>