<svg height="512" viewBox="0 0 64 64" width="512" xmlns="http://www.w3.org/2000/svg"><g id="Layer_27" data-name="Layer 27"><g fill="#c4e2ff"><path d="m48 42-1.861 5.056a2.244 2.244 0 0 0 .429 2.273l.043.046a1.946 1.946 0 0 0 .494.39l.015.008a1.809 1.809 0 0 0 1.742.007l.025-.014a1.937 1.937 0 0 0 .507-.4l.038-.041a2.244 2.244 0 0 0 .429-2.273z"/><path d="m38 54-1.861 5.056a2.244 2.244 0 0 0 .429 2.273l.043.046a1.946 1.946 0 0 0 .494.39l.015.008a1.809 1.809 0 0 0 1.742.007l.025-.014a1.937 1.937 0 0 0 .507-.4l.038-.041a2.244 2.244 0 0 0 .429-2.273z"/><path d="m16 42-1.861 5.056a2.244 2.244 0 0 0 .429 2.273l.043.046a1.946 1.946 0 0 0 .494.39l.015.008a1.809 1.809 0 0 0 1.742.007l.025-.014a1.937 1.937 0 0 0 .507-.4l.038-.041a2.244 2.244 0 0 0 .429-2.273z"/><path d="m6 54-1.861 5.056a2.244 2.244 0 0 0 .429 2.273l.043.046a1.946 1.946 0 0 0 .494.39l.015.008a1.809 1.809 0 0 0 1.742.007l.025-.014a1.937 1.937 0 0 0 .507-.4l.038-.041a2.244 2.244 0 0 0 .429-2.273z"/></g><path d="m13 36a7 7 0 0 1 -7-7 7 7 0 0 1 6.894-7l-.081-.044a10 10 0 0 1 13.946-12.756 14 14 0 0 1 24.88 12.829 7 7 0 0 1 6.361 6.971 7 7 0 0 1 -7 7z" fill="#b3dafe"/><path d="m6.079 30a7 7 0 0 0 6.921 6h38a7 7 0 0 0 6.921-6 7 7 0 0 0 -6.282-5.969 14.137 14.137 0 0 0 .721-1.894 6.879 6.879 0 0 0 -.721-.106 13.952 13.952 0 0 0 1.308-5.084 13.993 13.993 0 0 0 -26.189-5.747 10 10 0 0 0 -14.708 7.788 9.963 9.963 0 0 0 .762 2.966l.081.044c-.231 0-.459.019-.684.044a9.942 9.942 0 0 0 .6 1.912l.081.044a7 7 0 0 0 -6.811 6.002z" fill="#c4e2ff"/><path d="m37.824 18-14.295 19.381h7.412l-7.941 17.619 18-21.73h-7.412z" fill="#fac600"/><path d="m41 33.27h-5.412-2l3.03-10.924-11.089 15.035h5.412 2l-5.554 12.323z" fill="#fed402"/><path d="m53.051 21.263a15.01 15.01 0 0 0 -14.051-20.263 15.047 15.047 0 0 0 -12.623 6.926 10.995 10.995 0 0 0 -14.919 13.224 8 8 0 0 0 1.542 15.85h9.609a1 1 0 0 0 .92 1.381h5.865l-7.306 16.208a1 1 0 0 0 1.682 1.049l15.438-18.638h11.792a8 8 0 0 0 2.051-15.737zm-26.1 27.393 4.9-10.864a1 1 0 0 0 -.912-1.411h-5.43l9.9-13.426-2.784 10.045a1 1 0 0 0 .963 1.268h5.285zm24.049-13.656h-10.135l.905-1.093a1 1 0 0 0 -.77-1.637h-6.1l3.884-14a1 1 0 0 0 -1.768-.862l-12.973 17.592h-11.043a6 6 0 0 1 -.091-12 .977.977 0 0 0 .916-.782 1 1 0 0 0 -.141-.771 8.992 8.992 0 0 1 11.727-11.769 14.823 14.823 0 0 0 -1.273 4.278l1.982.27a13 13 0 0 1 25.88 1.774 12.879 12.879 0 0 1 -1.264 5.6 1 1 0 0 0 .813 1.426 6 6 0 0 1 -.549 11.974z"/><path d="m28.084 13.729 1.982.264c.515-3.855 4.522-6.993 8.934-6.993v-2c-5.469 0-10.264 3.834-10.916 8.729z"/><path d="m48.938 41.654a1 1 0 0 0 -1.876 0l-1.862 5.056a3.274 3.274 0 0 0 .674 3.341 2.981 2.981 0 0 0 .765.6 2.8 2.8 0 0 0 1.351.349 2.874 2.874 0 0 0 1.372-.352 3.036 3.036 0 0 0 .806-.64 3.252 3.252 0 0 0 .632-3.3zm-.279 7.038a1.022 1.022 0 0 1 -.272.208.822.822 0 0 1 -.8-.012 1.1 1.1 0 0 1 -.282-.236 1.249 1.249 0 0 1 -.227-1.251l.922-2.501.923 2.506a1.268 1.268 0 0 1 -.264 1.286z"/><path d="m38.938 53.654a1 1 0 0 0 -1.876 0l-1.862 5.056a3.274 3.274 0 0 0 .674 3.341 2.981 2.981 0 0 0 .765.6 2.8 2.8 0 0 0 1.351.349 2.874 2.874 0 0 0 1.372-.352 3.036 3.036 0 0 0 .806-.64 3.252 3.252 0 0 0 .632-3.3zm-.279 7.038a1.022 1.022 0 0 1 -.272.208.817.817 0 0 1 -.8-.012 1.1 1.1 0 0 1 -.282-.236 1.249 1.249 0 0 1 -.227-1.251l.922-2.501.923 2.506a1.268 1.268 0 0 1 -.264 1.286z"/><path d="m16.938 41.654a1 1 0 0 0 -1.876 0l-1.862 5.056a3.274 3.274 0 0 0 .674 3.341 2.981 2.981 0 0 0 .765.6 2.8 2.8 0 0 0 1.351.349 2.874 2.874 0 0 0 1.372-.352 3.036 3.036 0 0 0 .806-.64 3.252 3.252 0 0 0 .632-3.3zm-.279 7.038a1.022 1.022 0 0 1 -.272.208.822.822 0 0 1 -.8-.012 1.1 1.1 0 0 1 -.282-.236 1.249 1.249 0 0 1 -.227-1.251l.922-2.501.923 2.506a1.268 1.268 0 0 1 -.264 1.286z"/><path d="m6.938 53.654a1 1 0 0 0 -1.876 0l-1.862 5.056a3.274 3.274 0 0 0 .674 3.341 2.981 2.981 0 0 0 .765.6 2.8 2.8 0 0 0 1.351.349 2.874 2.874 0 0 0 1.372-.352 3.036 3.036 0 0 0 .806-.64 3.252 3.252 0 0 0 .632-3.3zm-.279 7.038a1.022 1.022 0 0 1 -.272.208.817.817 0 0 1 -.8-.012 1.1 1.1 0 0 1 -.282-.236 1.249 1.249 0 0 1 -.228-1.252l.923-2.5.923 2.5a1.268 1.268 0 0 1 -.264 1.292z"/></g></svg>